<svg xmlns="http://www.w3.org/2000/svg">
<symbol id="logo"
viewBox="0 0 153 35" width="100%" height="100%"  fill="none" >
<path d="M7.60065 26.5793C6.94627 26.5793 6.44688 26.403 6.10247 26.0504C5.75807 25.6978 5.58586 25.1941 5.58586 24.5393V17.2356L6.41244 19.477L0.316425 11.04C0.0753392 10.6874 -0.0279831 10.3096 0.00645765 9.90667C0.0408984 9.48692 0.213102 9.12593 0.523069 8.82371C0.833036 8.52149 1.27216 8.37038 1.84043 8.37038C2.25372 8.37038 2.62396 8.47112 2.95114 8.6726C3.29555 8.87408 3.62274 9.19309 3.93271 9.62964L8.0656 15.4474H7.23902L11.3719 9.62964C11.6991 9.1763 12.0177 8.85729 12.3276 8.6726C12.6548 8.47112 13.0337 8.37038 13.4642 8.37038C14.0152 8.37038 14.4458 8.51309 14.7557 8.79853C15.0657 9.06717 15.2293 9.41136 15.2465 9.83112C15.2637 10.2341 15.1173 10.6538 14.8074 11.0904L8.78885 19.477L9.5896 17.2356V24.5393C9.5896 25.8993 8.92662 26.5793 7.60065 26.5793Z" fill="white"/>
<path d="M21.1332 26.6296C19.7728 26.6296 18.5846 26.3694 17.5686 25.8489C16.5698 25.3284 15.7949 24.5812 15.2439 23.6074C14.6928 22.6336 14.4173 21.4835 14.4173 20.157C14.4173 19.1664 14.5723 18.2765 14.8822 17.4874C15.1922 16.6983 15.6399 16.0267 16.2254 15.4726C16.8281 14.9017 17.5428 14.4736 18.3694 14.1882C19.196 13.8859 20.1172 13.7348 21.1332 13.7348C22.4937 13.7348 23.6733 13.9951 24.672 14.5156C25.688 15.0361 26.4716 15.7748 27.0226 16.7319C27.5909 17.6889 27.875 18.8306 27.875 20.157C27.875 21.1645 27.7114 22.0627 27.3842 22.8519C27.0743 23.641 26.6266 24.321 26.0411 24.8919C25.4556 25.4627 24.7409 25.8993 23.8971 26.2015C23.0705 26.4869 22.1493 26.6296 21.1332 26.6296ZM21.1332 23.7837C21.7015 23.7837 22.1923 23.6494 22.6056 23.3807C23.0189 23.1121 23.3461 22.7175 23.5872 22.197C23.8282 21.6598 23.9488 20.9798 23.9488 20.157C23.9488 18.9314 23.6905 18.0331 23.1739 17.4622C22.6573 16.8746 21.977 16.5807 21.1332 16.5807C20.5822 16.5807 20.0914 16.7067 19.6609 16.9585C19.2476 17.2104 18.9204 17.6049 18.6793 18.1422C18.4555 18.6627 18.3435 19.3343 18.3435 20.157C18.3435 21.3827 18.6019 22.2978 19.1185 22.9022C19.6351 23.4899 20.3067 23.7837 21.1332 23.7837Z" fill="white"/>
<path d="M34.9233 26.6296C33.8557 26.6296 32.9688 26.4366 32.2628 26.0504C31.5568 25.6642 31.0315 25.0849 30.6871 24.3126C30.3599 23.5235 30.1963 22.5496 30.1963 21.3911V15.6993C30.1963 15.0612 30.3599 14.5827 30.6871 14.2637C31.0315 13.9447 31.5137 13.7852 32.1336 13.7852C32.7536 13.7852 33.2357 13.9447 33.5802 14.2637C33.9246 14.5827 34.0968 15.0612 34.0968 15.6993V21.4919C34.0968 22.2306 34.2518 22.7847 34.5617 23.1541C34.8717 23.5067 35.3625 23.683 36.0341 23.683C36.7745 23.683 37.3773 23.4311 37.8422 22.9274C38.3244 22.4069 38.5655 21.7269 38.5655 20.8874V15.6993C38.5655 15.0612 38.729 14.5827 39.0562 14.2637C39.4006 13.9447 39.8828 13.7852 40.5028 13.7852C41.1399 13.7852 41.6221 13.9447 41.9493 14.2637C42.2937 14.5827 42.4659 15.0612 42.4659 15.6993V24.64C42.4659 25.9328 41.8373 26.5793 40.5802 26.5793C39.9603 26.5793 39.4867 26.4114 39.1596 26.0756C38.8324 25.7398 38.6688 25.2612 38.6688 24.64V22.9526L39.0562 23.9348C38.6774 24.7911 38.1349 25.4543 37.4289 25.9244C36.7229 26.3946 35.8877 26.6296 34.9233 26.6296Z" fill="white"/>
<path d="M47.4988 26.5793C46.8444 26.5793 46.345 26.4114 46.0006 26.0756C45.6562 25.7398 45.484 25.2612 45.484 24.64V15.6993C45.484 15.078 45.6476 14.6079 45.9748 14.2889C46.3192 13.9531 46.7928 13.7852 47.3955 13.7852C48.0154 13.7852 48.489 13.9531 48.8162 14.2889C49.1433 14.6079 49.3069 15.078 49.3069 15.6993V17.0089H49.0486C49.2553 16.0015 49.7116 15.2207 50.4177 14.6667C51.1237 14.1126 52.0364 13.802 53.1557 13.7348C53.5862 13.7012 53.9134 13.8104 54.1373 14.0622C54.3783 14.2973 54.5075 14.6919 54.5247 15.2459C54.5592 15.7664 54.4472 16.1778 54.1889 16.48C53.9478 16.7822 53.5345 16.9669 52.9491 17.0341L52.3549 17.0845C51.3734 17.1684 50.6415 17.4454 50.1593 17.9156C49.6944 18.3857 49.4619 19.0657 49.4619 19.9556V24.64C49.4619 25.2612 49.2897 25.7398 48.9453 26.0756C48.6181 26.4114 48.136 26.5793 47.4988 26.5793Z" fill="white"/>
<path d="M58.3246 26.5793C57.7391 26.5793 57.2914 26.4198 56.9814 26.1007C56.6715 25.7817 56.5165 25.3368 56.5165 24.7659V10.1837C56.5165 9.61285 56.6801 9.16791 57.0073 8.84889C57.3517 8.52988 57.8166 8.37038 58.4021 8.37038C58.9187 8.37038 59.3234 8.47112 59.6162 8.6726C59.9261 8.85729 60.2103 9.1847 60.4686 9.65482L66.4354 20.283H65.5572L71.5241 9.65482C71.7824 9.1847 72.0579 8.85729 72.3506 8.6726C72.6606 8.47112 73.0653 8.37038 73.5647 8.37038C74.1502 8.37038 74.5979 8.52988 74.9079 8.84889C75.2351 9.16791 75.3986 9.61285 75.3986 10.1837V24.7659C75.3986 25.3368 75.2437 25.7817 74.9337 26.1007C74.6237 26.4198 74.176 26.5793 73.5905 26.5793C73.005 26.5793 72.5487 26.4198 72.2215 26.1007C71.9115 25.7817 71.7565 25.3368 71.7565 24.7659V14.5659H72.3248L67.5203 22.9526C67.3137 23.2716 67.0898 23.5151 66.8487 23.683C66.6249 23.8341 66.3235 23.9096 65.9447 23.9096C65.5658 23.9096 65.2558 23.8257 65.0148 23.6578C64.7737 23.4899 64.5584 23.2548 64.369 22.9526L59.5128 14.5407H60.1328V24.7659C60.1328 25.3368 59.9778 25.7817 59.6678 26.1007C59.3751 26.4198 58.9273 26.5793 58.3246 26.5793Z" fill="white"/>
<path d="M85.3428 26.6296C83.8446 26.6296 82.5531 26.3694 81.4682 25.8489C80.4006 25.3116 79.574 24.5645 78.9885 23.6074C78.4202 22.6336 78.1361 21.4919 78.1361 20.1822C78.1361 18.9062 78.4116 17.7896 78.9627 16.8326C79.5137 15.8588 80.28 15.1032 81.2616 14.5659C82.2604 14.0119 83.3883 13.7348 84.6454 13.7348C85.5581 13.7348 86.3846 13.8859 87.1251 14.1882C87.8656 14.4736 88.5028 14.8933 89.0366 15.4474C89.5704 15.9847 89.9751 16.6479 90.2506 17.437C90.5261 18.2094 90.6639 19.0741 90.6639 20.0311C90.6639 20.3501 90.5606 20.5936 90.3539 20.7615C90.1473 20.9126 89.8459 20.9882 89.4499 20.9882H81.3391V19.0237H87.8484L87.4351 19.3763C87.4351 18.6879 87.3318 18.117 87.1251 17.6637C86.9185 17.1936 86.6171 16.841 86.2211 16.6059C85.8422 16.3709 85.3686 16.2533 84.8004 16.2533C84.1632 16.2533 83.6208 16.3961 83.173 16.6815C82.7253 16.9669 82.3809 17.3783 82.1398 17.9156C81.8987 18.4528 81.7782 19.0993 81.7782 19.8548V20.0563C81.7782 21.3324 82.0796 22.2726 82.6823 22.877C83.3022 23.4815 84.2149 23.7837 85.4203 23.7837C85.8336 23.7837 86.3072 23.7333 86.841 23.6326C87.3748 23.5319 87.8742 23.3724 88.3392 23.1541C88.7352 22.9694 89.0882 22.9106 89.3982 22.9778C89.7082 23.0282 89.9493 23.1625 90.1215 23.3807C90.2937 23.599 90.3884 23.8509 90.4056 24.1363C90.44 24.4217 90.3798 24.7072 90.2248 24.9926C90.0698 25.2612 89.8115 25.4879 89.4499 25.6726C88.8644 25.9916 88.2014 26.2267 87.4609 26.3778C86.7377 26.5457 86.0316 26.6296 85.3428 26.6296Z" fill="white"/>
<path d="M97.2204 26.6296C96.2905 26.6296 95.4553 26.4533 94.7149 26.1007C93.9744 25.7482 93.3975 25.2696 92.9842 24.6652C92.5709 24.0607 92.3643 23.3807 92.3643 22.6252C92.3643 21.7185 92.6054 21.0049 93.0875 20.4845C93.5697 19.9472 94.3532 19.5694 95.4381 19.3511C96.523 19.1161 97.9609 18.9985 99.7518 18.9985H101.121V20.963H99.7777C98.8994 20.963 98.1848 21.0133 97.6337 21.1141C97.0999 21.198 96.7124 21.3491 96.4714 21.5674C96.2475 21.7857 96.1356 22.0879 96.1356 22.4741C96.1356 22.9442 96.2991 23.3304 96.6263 23.6326C96.9707 23.9348 97.4615 24.0859 98.0987 24.0859C98.5981 24.0859 99.0372 23.9768 99.416 23.7585C99.8121 23.5235 100.122 23.2128 100.346 22.8267C100.57 22.4237 100.682 21.9704 100.682 21.4667V18.5704C100.682 17.8316 100.51 17.3111 100.165 17.0089C99.8207 16.6899 99.2352 16.5304 98.4086 16.5304C97.9437 16.5304 97.4357 16.5891 96.8846 16.7067C96.3508 16.8074 95.7567 16.9837 95.1023 17.2356C94.7235 17.4035 94.3877 17.4454 94.0949 17.3615C93.8022 17.2607 93.5783 17.0928 93.4233 16.8578C93.2684 16.6059 93.1909 16.3373 93.1909 16.0519C93.1909 15.7496 93.277 15.4642 93.4492 15.1956C93.6214 14.9101 93.9055 14.7003 94.3016 14.5659C95.1109 14.2469 95.8686 14.0286 96.5747 13.9111C97.2979 13.7936 97.9609 13.7348 98.5636 13.7348C99.8896 13.7348 100.974 13.9279 101.818 14.3141C102.679 14.6835 103.325 15.2627 103.756 16.0519C104.186 16.8242 104.401 17.8232 104.401 19.0489V24.64C104.401 25.2612 104.246 25.7398 103.936 26.0756C103.626 26.4114 103.179 26.5793 102.593 26.5793C102.008 26.5793 101.551 26.4114 101.224 26.0756C100.914 25.7398 100.759 25.2612 100.759 24.64V23.7082L100.94 23.8593C100.837 24.4301 100.613 24.9254 100.268 25.3452C99.9413 25.7482 99.5194 26.0672 99.0027 26.3022C98.4861 26.5205 97.892 26.6296 97.2204 26.6296Z" fill="white"/>
<path d="M111.883 26.6296C110.35 26.6296 109.205 26.2183 108.447 25.3956C107.69 24.5561 107.311 23.3136 107.311 21.6682V10.3096C107.311 9.67161 107.475 9.19309 107.802 8.87408C108.146 8.53828 108.637 8.37038 109.274 8.37038C109.894 8.37038 110.368 8.53828 110.695 8.87408C111.039 9.19309 111.211 9.67161 111.211 10.3096V21.517C111.211 22.2054 111.358 22.7175 111.65 23.0533C111.96 23.3724 112.365 23.5319 112.864 23.5319C113.002 23.5319 113.131 23.5235 113.252 23.5067C113.372 23.4899 113.502 23.4815 113.639 23.4815C113.915 23.4479 114.104 23.5319 114.208 23.7333C114.328 23.918 114.388 24.2958 114.388 24.8667C114.388 25.3704 114.285 25.7565 114.079 26.0252C113.872 26.277 113.553 26.4449 113.123 26.5289C112.951 26.5457 112.753 26.5625 112.529 26.5793C112.305 26.6128 112.09 26.6296 111.883 26.6296Z" fill="white"/>
<path d="M145.06 8.16295L147.847 8.07486V17.9404H144.484L145.06 8.16295Z" fill="#FFA132"/>
<ellipse cx="136.475" cy="25.1634" rx="3.31877" ry="4.2281" fill="#FFA132"/>
<path d="M130.388 11.3781C130.388 13.7132 128.769 13.3159 126.936 13.3159C125.103 13.3159 123.883 12.6993 123.883 11.8625C123.883 9.52742 125.236 9.21997 127.069 9.21997C128.902 9.21997 130.388 9.04295 130.388 11.3781Z" fill="#FFA132"/>
<path d="M122.233 3.79129C122.07 3.88233 121.854 4.07743 121.743 4.227L121.547 4.50664V7.99234V11.4846L121.717 11.9203C122.331 13.4875 123.651 14.528 125.238 14.6906L125.663 14.7361L125.696 22.605L125.729 30.4738L125.872 30.708C125.957 30.838 126.147 31.0266 126.297 31.1307C126.539 31.2998 126.624 31.3193 127.068 31.3193C127.506 31.3193 127.597 31.2998 127.826 31.1437C127.963 31.0461 128.153 30.8575 128.244 30.721L128.407 30.4803L128.44 22.6115L128.473 14.7361L128.897 14.6906C130.524 14.528 131.949 13.364 132.445 11.8097C132.589 11.361 132.589 11.2895 132.589 7.93382V4.51314L132.413 4.25952C132.125 3.85632 131.825 3.68724 131.321 3.66122C130.786 3.63521 130.4 3.8108 130.106 4.227L129.91 4.50664L129.878 6.13894L129.845 7.77774H129.159H128.473L128.44 6.14544C128.407 4.53915 128.407 4.51314 128.244 4.27903C127.97 3.86933 127.636 3.68724 127.14 3.66122C126.604 3.63521 126.219 3.8108 125.925 4.227L125.729 4.50664L125.696 6.13894L125.663 7.77774H124.977H124.291L124.258 6.14544L124.226 4.51314L124.049 4.25952C123.762 3.85632 123.461 3.68724 122.958 3.66122C122.599 3.64172 122.475 3.66773 122.233 3.79129ZM129.812 10.7367C129.812 11.1334 129.492 11.5691 129.028 11.8162C128.819 11.9268 128.636 11.9398 127.068 11.9398C125.421 11.9398 125.323 11.9333 125.075 11.7967C124.631 11.5626 124.324 11.1269 124.324 10.7367V10.5416H127.068H129.812V10.7367Z" fill="white"/>
<path d="M135.777 3.79129C135.614 3.88233 135.398 4.07743 135.287 4.227L135.091 4.50664L135.058 11.7577L135.026 19.0087L134.477 19.1713C133.105 19.5615 132.079 20.3809 131.504 21.532C131.001 22.553 130.916 22.9757 130.916 24.4584C130.916 25.5444 130.936 25.8046 131.053 26.2793C131.694 28.796 133.111 30.5129 135.091 31.1697C135.477 31.2932 135.686 31.3193 136.431 31.3193C137.175 31.3193 137.385 31.2932 137.77 31.1697C139.75 30.5129 141.168 28.796 141.808 26.2793C141.926 25.8046 141.945 25.5444 141.945 24.4584C141.945 23.3659 141.926 23.1187 141.801 22.67C141.311 20.8686 140.142 19.6721 138.384 19.1713L137.835 19.0087L137.803 11.7642L137.77 4.51314L137.594 4.25952C137.306 3.85632 137.006 3.68724 136.502 3.66123C136.143 3.64172 136.019 3.66773 135.777 3.79129ZM137.718 21.8571C138.45 22.1042 138.926 22.67 139.109 23.4894C139.234 24.0552 139.162 25.4729 138.979 26.0517C138.639 27.1182 137.992 28.0156 137.293 28.3668C136.855 28.5879 136.012 28.5944 135.581 28.3733C134.836 27.9896 134.235 27.1572 133.869 26.0192C133.739 25.59 133.719 25.4014 133.719 24.4584C133.719 23.4114 133.726 23.3789 133.909 22.9757C134.235 22.2733 134.902 21.8181 135.777 21.7011C135.777 21.7011 137.313 21.7271 137.718 21.8571Z" fill="white"/>
<path d="M148.375 3.76528C147.538 4.20099 146.245 5.38457 145.448 6.43158C143.461 9.06537 142.305 12.7852 142.037 17.435C141.939 19.1388 141.985 19.3924 142.436 19.8411C142.873 20.2769 142.991 20.2964 145.474 20.2964H147.604V25.3233V30.3568L147.754 30.6299C147.832 30.786 148.028 31.0006 148.185 31.1177C148.44 31.2998 148.505 31.3193 148.969 31.3193C149.414 31.3193 149.505 31.2998 149.734 31.1437C149.871 31.0461 150.061 30.8575 150.152 30.721L150.315 30.4803V17.5V4.51314L150.139 4.25952C149.851 3.84982 149.551 3.68724 149.048 3.66122C148.721 3.64822 148.558 3.66773 148.375 3.76528ZM147.604 12.8827V17.5H146.219H144.84L144.886 16.8302C145.003 15.0418 145.441 12.8827 146.01 11.2895C146.388 10.2359 147.408 8.26548 147.571 8.26548C147.591 8.26548 147.604 10.34 147.604 12.8827Z" fill="white"/>
</symbol>



<symbol id='vk' width="36" height="36" viewBox="0 0 36 36" fill='none'>
<g clip-path="url(#clip0_60_4704)">
<path d="M18 6.10352e-05C8.05875 6.10352e-05 0 8.05881 0 18.0001C0 27.9413 8.05875 36.0001 18 36.0001C27.9412 36.0001 36 27.9413 36 18.0001C36 8.05881 27.9412 6.10352e-05 18 6.10352e-05ZM24.9225 20.3082C24.9225 20.3082 26.5144 21.8794 26.9062 22.6088C26.9175 22.6238 26.9231 22.6388 26.9269 22.6463C27.0862 22.9144 27.1237 23.1226 27.045 23.2782C26.9137 23.5369 26.4637 23.6644 26.31 23.6757H23.4975C23.3025 23.6757 22.8937 23.6251 22.3987 23.2838C22.0181 23.0176 21.6431 22.5807 21.2775 22.1551C20.7319 21.5213 20.2594 20.9738 19.7831 20.9738C19.7226 20.9737 19.6625 20.9832 19.605 21.0019C19.245 21.1182 18.7838 21.6319 18.7838 23.0007C18.7838 23.4282 18.4462 23.6738 18.2081 23.6738H16.92C16.4812 23.6738 14.1956 23.5201 12.1706 21.3844C9.69187 18.7688 7.46062 13.5226 7.44187 13.4738C7.30125 13.1344 7.59187 12.9526 7.90875 12.9526H10.7494C11.1281 12.9526 11.2519 13.1832 11.3381 13.3876C11.4394 13.6257 11.8106 14.5726 12.42 15.6376C13.4081 17.3738 14.0138 18.0788 14.4994 18.0788C14.5904 18.0777 14.6799 18.0546 14.76 18.0113C15.3937 17.6588 15.2756 15.3994 15.2475 14.9307C15.2475 14.8426 15.2456 13.9201 14.9212 13.4776C14.6887 13.1569 14.2931 13.0351 14.0531 12.9901C14.1503 12.856 14.2782 12.7473 14.4262 12.6732C14.8612 12.4557 15.645 12.4238 16.4231 12.4238H16.8563C17.7 12.4351 17.9175 12.4894 18.2231 12.5663C18.8419 12.7144 18.855 13.1138 18.8006 14.4807C18.7838 14.8688 18.7669 15.3076 18.7669 15.8251C18.7669 15.9376 18.7612 16.0576 18.7612 16.1851C18.7425 16.8807 18.72 17.6701 19.2112 17.9944C19.2753 18.0346 19.3494 18.056 19.425 18.0563C19.5956 18.0563 20.1094 18.0563 21.5006 15.6694C21.9297 14.9012 22.3025 14.1028 22.6162 13.2807C22.6444 13.2319 22.7269 13.0819 22.8244 13.0238C22.8963 12.9871 22.9761 12.9685 23.0569 12.9694H26.3962C26.76 12.9694 27.0094 13.0238 27.0562 13.1644C27.1387 13.3876 27.0412 14.0682 25.5169 16.1326L24.8362 17.0307C23.4544 18.8419 23.4544 18.9338 24.9225 20.3082Z" fill="#FF7020"/>
</g>
</symbol>

<symbol id="telegram" width="36" height="36" viewBox="0 0 36 36" fill="none" >
<path d="M36 18C36 22.7739 34.1036 27.3523 30.7279 30.7279C27.3523 34.1036 22.7739 36 18 36C13.2261 36 8.64773 34.1036 5.27208 30.7279C1.89642 27.3523 0 22.7739 0 18C0 13.2261 1.89642 8.64773 5.27208 5.27208C8.64773 1.89642 13.2261 0 18 0C22.7739 0 27.3523 1.89642 30.7279 5.27208C34.1036 8.64773 36 13.2261 36 18ZM18.6458 13.2885C16.8952 14.0175 13.3942 15.525 8.14725 17.811C7.29675 18.1485 6.849 18.4815 6.8085 18.8055C6.741 19.3522 7.42725 19.5683 8.361 19.863L8.75475 19.9868C9.67275 20.286 10.9102 20.6348 11.5515 20.6483C12.1365 20.6618 12.7867 20.4233 13.5045 19.9283C18.4072 16.6185 20.9385 14.9467 21.096 14.9107C21.2085 14.8837 21.366 14.8523 21.4695 14.9468C21.5752 15.039 21.564 15.2168 21.5528 15.264C21.4853 15.5542 18.792 18.0562 17.3993 19.3522C16.965 19.7572 16.6567 20.043 16.5938 20.1082C16.455 20.25 16.314 20.3895 16.1707 20.5268C15.3157 21.3503 14.6768 21.9668 16.2045 22.9748C16.9403 23.4608 17.5298 23.859 18.117 24.2595C18.756 24.696 19.395 25.1303 20.223 25.6748C20.4322 25.8098 20.6348 25.956 20.8305 26.0955C21.5753 26.6265 22.248 27.1035 23.0737 27.027C23.5553 26.982 24.0525 26.532 24.3045 25.182C24.9007 21.9938 26.073 15.0885 26.343 12.2423C26.3595 12.0056 26.3497 11.7679 26.3137 11.5335C26.2926 11.3443 26.201 11.17 26.0573 11.0452C25.8525 10.9039 25.6085 10.8307 25.3597 10.836C24.6847 10.8472 23.643 11.2095 18.6458 13.2885Z" fill="#FF7020"/>

</symbol>

</svg>